<svg width="16" height="16" viewBox="0 0 16 16" fill="none" xmlns="http://www.w3.org/2000/svg">
<path fill-rule="evenodd" clip-rule="evenodd" d="M0 8C0 3.58214 3.58214 0 8 0C12.4179 0 16 3.58214 16 8C16 12.4179 12.4179 16 8 16C3.58214 16 0 12.4179 0 8ZM1.35714 8C1.35714 11.6679 4.33214 14.6429 8 14.6429C11.6679 14.6429 14.6429 11.6679 14.6429 8C14.6429 4.33214 11.6679 1.35714 8 1.35714C4.33214 1.35714 1.35714 4.33214 1.35714 8ZM10.8743 5H11.8364C11.9697 5 12.0477 5.1518 11.9677 5.26052L7.64756 11.2504C7.58717 11.3347 7.50758 11.4034 7.41536 11.4508C7.32314 11.4981 7.22096 11.5228 7.11728 11.5228C7.01361 11.5228 6.91143 11.4981 6.81921 11.4508C6.72699 11.4034 6.64739 11.3347 6.58701 11.2504L4.03103 7.70572C3.95308 7.597 4.03103 7.4452 4.16437 7.4452H5.12645C5.33774 7.4452 5.53467 7.54777 5.65775 7.71803L7.11831 9.74475L10.343 5.27283C10.4661 5.10052 10.6651 5 10.8743 5Z" fill="#2A3031"/>
</svg>
