<svg width="16" height="16" viewBox="0 0 16 16" fill="none" xmlns="http://www.w3.org/2000/svg">
<path d="M8 0C3.58214 0 0 3.58214 0 8C0 12.4179 3.58214 16 8 16C12.4179 16 16 12.4179 16 8C16 3.58214 12.4179 0 8 0ZM8 14.6429C4.33214 14.6429 1.35714 11.6679 1.35714 8C1.35714 4.33214 4.33214 1.35714 8 1.35714C11.6679 1.35714 14.6429 4.33214 14.6429 8C14.6429 11.6679 11.6679 14.6429 8 14.6429Z" fill="#2A3031"/>
<path fill-rule="evenodd" clip-rule="evenodd" d="M7.77778 4C8.20733 4 8.55556 4.34278 8.55556 4.76562V8.46875H11.2222C11.6518 8.46875 12 8.81153 12 9.23438C12 9.65722 11.6518 10 11.2222 10H7.77778C7.34822 10 7 9.65722 7 9.23438V4.76562C7 4.34278 7.34822 4 7.77778 4Z" fill="#2A3031"/>
</svg>
